rotated_Sprint_05400001_forces_filt5Hz.mot
version=1
nRows=52
nColumns=19
inDegrees=yes
endheader
time	R_ground_force_vx	R_ground_force_vy	R_ground_force_vz	R_ground_force_px	R_ground_force_py	R_ground_force_pz	R_ground_torque_x	R_ground_torque_y	R_ground_torque_z	L_ground_force_vx	L_ground_force_vy	L_ground_force_vz	L_ground_force_px	L_ground_force_py	L_ground_force_pz	L_ground_torque_x	L_ground_torque_y	L_ground_torque_z	
0.904500	  0.000000	  0.000000	  0.000000	  0.549488	  0.000000	 -0.619230	  0.000000	  0.000000	  0.000000	-37.978653	2361.407681	 15.142639	  0.802450	  0.000000	 -0.345246	  0.000000	 -2.496786	  0.000000
0.905000	  0.000000	  0.000000	  0.000000	  0.550140	  0.000000	 -0.617807	  0.000000	  0.000000	  0.000000	-34.937776	2359.682092	 14.912999	  0.801232	  0.000000	 -0.345219	  0.000000	 -2.467006	  0.000000
0.905500	  0.000000	  0.000000	  0.000000	  0.550771	  0.000000	 -0.616324	  0.000000	  0.000000	  0.000000	-31.887208	2357.776485	 14.680255	  0.800013	  0.000000	 -0.345191	  0.000000	 -2.437361	  0.000000
0.906000	  0.000000	  0.000000	  0.000000	  0.551403	  0.000000	 -0.614841	  0.000000	  0.000000	  0.000000	-28.827677	2355.691215	 14.444462	  0.798792	  0.000000	 -0.345164	  0.000000	 -2.407854	  0.000000
0.906500	  0.000000	  0.000000	  0.000000	  0.552034	  0.000000	 -0.613358	  0.000000	  0.000000	  0.000000	-25.759910	2353.426663	 14.205676	  0.797570	  0.000000	 -0.345137	  0.000000	 -2.378491	  0.000000
0.907000	  0.000000	  0.000000	  0.000000	  0.552666	  0.000000	 -0.611875	  0.000000	  0.000000	  0.000000	-22.684639	2350.983239	 13.963946	  0.796346	  0.000000	 -0.345111	  0.000000	 -2.349277	  0.000000
0.907500	  0.000000	  0.000000	  0.000000	  0.553297	  0.000000	 -0.610393	  0.000000	  0.000000	  0.000000	-19.602596	2348.361385	 13.719320	  0.795120	  0.000000	 -0.345084	  0.000000	 -2.320216	  0.000000
0.908000	  0.000000	  0.000000	  0.000000	  0.553929	  0.000000	 -0.608910	  0.000000	  0.000000	  0.000000	-16.514516	2345.561571	 13.471837	  0.793892	  0.000000	 -0.345058	  0.000000	 -2.291314	  0.000000
0.908500	  0.000000	  0.000000	  0.000000	  0.554560	  0.000000	 -0.607427	  0.000000	  0.000000	  0.000000	-13.421136	2342.584298	 13.221533	  0.792663	  0.000000	 -0.345032	  0.000000	 -2.262575	  0.000000
0.909000	  0.000000	  0.000000	  0.000000	  0.555192	  0.000000	 -0.605944	  0.000000	  0.000000	  0.000000	-10.323192	2339.430098	 12.968438	  0.791432	  0.000000	 -0.345006	  0.000000	 -2.234003	  0.000000
0.909500	  0.000000	  0.000000	  0.000000	  0.555824	  0.000000	 -0.604461	  0.000000	  0.000000	  0.000000	 -7.221424	2336.099535	 12.712574	  0.790199	  0.000000	 -0.344980	  0.000000	 -2.205603	  0.000000
0.910000	  0.000000	  0.000000	  0.000000	  0.556455	  0.000000	 -0.602978	  0.000000	  0.000000	  0.000000	 -4.116572	2332.593200	 12.453962	  0.788965	  0.000000	 -0.344954	  0.000000	 -2.177378	  0.000000
0.910500	  0.000000	  0.000000	  0.000000	  0.557154	  0.000000	 -0.601334	  0.000000	  0.000000	  0.000000	 -1.009378	2328.911715	 12.192614	  0.787730	  0.000000	 -0.344929	  0.000000	 -2.149334	  0.000000
0.911000	  0.000000	  0.000000	  0.000000	  0.557853	  0.000000	 -0.599690	  0.000000	  0.000000	  0.000000	  2.099413	2325.055731	 11.928543	  0.786492	  0.000000	 -0.344904	  0.000000	 -2.121476	  0.000000
0.911500	  0.000000	  0.000000	  0.000000	  0.558553	  0.000000	 -0.598046	  0.000000	  0.000000	  0.000000	  5.209056	2321.025926	 11.661757	  0.785253	  0.000000	 -0.344879	  0.000000	 -2.093809	  0.000000
0.912000	  0.000000	  0.000000	  0.000000	  0.559252	  0.000000	 -0.596402	  0.000000	  0.000000	  0.000000	  8.318800	2316.823007	 11.392265	  0.784013	  0.000000	 -0.344854	  0.000000	 -2.066338	  0.000000
0.912500	  0.000000	  0.000000	  0.000000	  0.559951	  0.000000	 -0.594758	  0.000000	  0.000000	  0.000000	 11.427896	2312.447704	 11.120074	  0.782771	  0.000000	 -0.344830	  0.000000	 -2.039070	  0.000000
0.913000	  0.000000	  0.000000	  0.000000	  0.560650	  0.000000	 -0.593114	  0.000000	  0.000000	  0.000000	 14.535588	2307.900776	 10.845189	  0.781527	  0.000000	 -0.344805	  0.000000	 -2.012010	  0.000000
0.913500	  0.000000	  0.000000	  0.000000	  0.561349	  0.000000	 -0.591470	  0.000000	  0.000000	  0.000000	 17.641121	2303.183005	 10.567618	  0.780282	  0.000000	 -0.344781	  0.000000	 -1.985160	  0.000000
0.914000	  0.000000	  0.000000	  0.000000	  0.562049	  0.000000	 -0.589826	  0.000000	  0.000000	  0.000000	 20.743736	2298.295201	 10.287365	  0.779036	  0.000000	 -0.344757	  0.000000	 -1.958524	  0.000000
0.914500	  0.000000	  0.000000	  0.000000	  0.562748	  0.000000	 -0.588182	  0.000000	  0.000000	  0.000000	 23.842672	2293.238198	 10.004436	  0.777788	  0.000000	 -0.344733	  0.000000	 -1.932100	  0.000000
0.915000	  0.000000	  0.000000	  0.000000	  0.563447	  0.000000	 -0.586538	  0.000000	  0.000000	  0.000000	 26.937168	2288.012859	  9.718836	  0.776538	  0.000000	 -0.344710	  0.000000	 -1.905884	  0.000000
0.915500	  0.000000	  0.000000	  0.000000	  0.564230	  0.000000	 -0.584785	  0.000000	  0.000000	  0.000000	 30.026460	2282.620071	  9.430571	  0.775287	  0.000000	 -0.344687	  0.000000	 -1.879869	  0.000000
0.916000	  0.000000	  0.000000	  0.000000	  0.565013	  0.000000	 -0.583032	  0.000000	  0.000000	  0.000000	 33.109783	2277.060751	  9.139643	  0.774034	  0.000000	 -0.344663	  0.000000	 -1.854042	  0.000000
0.916500	  0.000000	  0.000000	  0.000000	  0.565796	  0.000000	 -0.581279	  0.000000	  0.000000	  0.000000	 36.186372	2271.335841	  8.846058	  0.772780	  0.000000	 -0.344641	  0.000000	 -1.828387	  0.000000
0.917000	  0.000000	  0.000000	  0.000000	  0.566579	  0.000000	 -0.579526	  0.000000	  0.000000	  0.000000	 39.255461	2265.446310	  8.549820	  0.771524	  0.000000	 -0.344618	  0.000000	 -1.802884	  0.000000
0.917500	  0.000000	  0.000000	  0.000000	  0.567362	  0.000000	 -0.577773	  0.000000	  0.000000	  0.000000	 42.316288	2259.393153	  8.250936	  0.770267	  0.000000	 -0.344595	  0.000000	 -1.777508	  0.000000
0.918000	  0.000000	  0.000000	  0.000000	  0.568145	  0.000000	 -0.576020	  0.000000	  0.000000	  0.000000	 45.368092	2253.177392	  7.949412	  0.769008	  0.000000	 -0.344573	  0.000000	 -1.752230	  0.000000
0.918500	  0.000000	  0.000000	  0.000000	  0.568928	  0.000000	 -0.574267	  0.000000	  0.000000	  0.000000	 48.410115	2246.800076	  7.645259	  0.767748	  0.000000	 -0.344551	  0.000000	 -1.727016	  0.000000
0.919000	  0.000000	  0.000000	  0.000000	  0.569711	  0.000000	 -0.572514	  0.000000	  0.000000	  0.000000	 51.441605	2240.262279	  7.338489	  0.766486	  0.000000	 -0.344529	  0.000000	 -1.701829	  0.000000
0.919500	  0.000000	  0.000000	  0.000000	  0.570494	  0.000000	 -0.570761	  0.000000	  0.000000	  0.000000	 54.461814	2233.565103	  7.029118	  0.765222	  0.000000	 -0.344508	  0.000000	 -1.676630	  0.000000
0.920000	  0.000000	  0.000000	  0.000000	  0.571277	  0.000000	 -0.569008	  0.000000	  0.000000	  0.000000	 57.470003	2226.709672	  6.717167	  0.763958	  0.000000	 -0.344487	  0.000000	 -1.651375	  0.000000
0.920500	  0.000000	  0.000000	  0.000000	  0.572148	  0.000000	 -0.567154	  0.000000	  0.000000	  0.000000	 60.465439	2219.697138	  6.402659	  0.762691	  0.000000	 -0.344466	  0.000000	 -1.626015	  0.000000
0.921000	  0.000000	  0.000000	  0.000000	  0.573020	  0.000000	 -0.565301	  0.000000	  0.000000	  0.000000	 63.447394	2212.528677	  6.085622	  0.761423	  0.000000	 -0.344445	  0.000000	 -1.600502	  0.000000
0.921500	  0.000000	  0.000000	  0.000000	  0.573891	  0.000000	 -0.563447	  0.000000	  0.000000	  0.000000	 66.415150	2205.205488	  5.766091	  0.760154	  0.000000	 -0.344424	  0.000000	 -1.574783	  0.000000
0.922000	  0.000000	  0.000000	  0.000000	  0.574762	  0.000000	 -0.561594	  0.000000	  0.000000	  0.000000	 69.367998	2197.728794	  5.444107	  0.758883	  0.000000	 -0.344404	  0.000000	 -1.548803	  0.000000
0.922500	  0.000000	  0.000000	  0.000000	  0.575633	  0.000000	 -0.559740	  0.000000	  0.000000	  0.000000	 72.305234	2190.099839	  5.119716	  0.757611	  0.000000	 -0.344384	  0.000000	 -1.522505	  0.000000
0.923000	  0.000000	  0.000000	  0.000000	  0.576505	  0.000000	 -0.557886	  0.000000	  0.000000	  0.000000	 75.226162	2182.319893	  4.792977	  0.756337	  0.000000	 -0.344365	  0.000000	 -1.495831	  0.000000
0.923500	  0.000000	  0.000000	  0.000000	  0.577376	  0.000000	 -0.556033	  0.000000	  0.000000	  0.000000	 78.130095	2174.390243	  4.463955	  0.755061	  0.000000	 -0.344345	  0.000000	 -1.468723	  0.000000
0.924000	  0.000000	  0.000000	  0.000000	  0.578247	  0.000000	 -0.554179	  0.000000	  0.000000	  0.000000	 81.016352	2166.312204	  4.132727	  0.753784	  0.000000	 -0.344326	  0.000000	 -1.441123	  0.000000
0.924500	  0.000000	  0.000000	  0.000000	  0.579119	  0.000000	 -0.552326	  0.000000	  0.000000	  0.000000	 83.884261	2158.087108	  3.799381	  0.752506	  0.000000	 -0.344308	  0.000000	 -1.412973	  0.000000
0.925000	  0.000000	  0.000000	  0.000000	  0.579990	  0.000000	 -0.550472	  0.000000	  0.000000	  0.000000	 86.733154	2149.716314	  3.464015	  0.751226	  0.000000	 -0.344289	  0.000000	 -1.384217	  0.000000
0.925500	  0.000000	  0.000000	  0.000000	  0.580966	  0.000000	 -0.548535	  0.000000	  0.000000	  0.000000	 89.562371	2141.201199	  3.126740	  0.749944	  0.000000	 -0.344271	  0.000000	 -1.354800	  0.000000
0.926000	  0.000000	  0.000000	  0.000000	  0.581942	  0.000000	 -0.546599	  0.000000	  0.000000	  0.000000	 92.371259	2132.543165	  2.787679	  0.748661	  0.000000	 -0.344254	  0.000000	 -1.324671	  0.000000
0.926500	  0.000000	  0.000000	  0.000000	  0.582918	  0.000000	 -0.544662	  0.000000	  0.000000	  0.000000	 95.159170	2123.743637	  2.446962	  0.747376	  0.000000	 -0.344236	  0.000000	 -1.293779	  0.000000
0.927000	  0.000000	  0.000000	  0.000000	  0.583894	  0.000000	 -0.542726	  0.000000	  0.000000	  0.000000	 97.925464	2114.804062	  2.104733	  0.746090	  0.000000	 -0.344219	  0.000000	 -1.262080	  0.000000
0.927500	  0.000000	  0.000000	  0.000000	  0.584869	  0.000000	 -0.540789	  0.000000	  0.000000	  0.000000	100.669507	2105.725907	  1.761143	  0.744802	  0.000000	 -0.344203	  0.000000	 -1.229529	  0.000000
0.928000	  0.000000	  0.000000	  0.000000	  0.585845	  0.000000	 -0.538852	  0.000000	  0.000000	  0.000000	103.390673	2096.510664	  1.416351	  0.743512	  0.000000	 -0.344186	  0.000000	 -1.196088	  0.000000
0.928500	  0.000000	  0.000000	  0.000000	  0.586821	  0.000000	 -0.536916	  0.000000	  0.000000	  0.000000	106.088342	2087.159847	  1.070526	  0.742221	  0.000000	 -0.344171	  0.000000	 -1.161722	  0.000000
0.929000	  0.000000	  0.000000	  0.000000	  0.587797	  0.000000	 -0.534979	  0.000000	  0.000000	  0.000000	108.761903	2077.674989	  0.723841	  0.740928	  0.000000	 -0.344155	  0.000000	 -1.126401	  0.000000
0.929500	  0.000000	  0.000000	  0.000000	  0.588773	  0.000000	 -0.533043	  0.000000	  0.000000	  0.000000	111.410751	2068.057645	  0.376477	  0.739633	  0.000000	 -0.344140	  0.000000	 -1.090100	  0.000000
0.930000	  0.000000	  0.000000	  0.000000	  0.589749	  0.000000	 -0.531106	  0.000000	  0.000000	  0.000000	114.034288	2058.309388	  0.028621	  0.738337	  0.000000	 -0.344125	  0.000000	 -1.052798	  0.000000
